<?xml version="1.0" encoding="UTF-8"?>
<svg id="Capa_1" data-name="Capa 1" xmlns="http://www.w3.org/2000/svg" viewBox="0 0 95.85 95.85">
  <defs>
    <style>
      .cls-1 {
        fill: #c378b0;
      }
    </style>
  </defs>
  <path class="cls-1" d="m36.99,61.27c0-2.19-.77-3.86-2.31-5.03-1.54-1.17-4.32-2.4-8.33-3.7-4.01-1.3-7.19-2.58-9.53-3.84-6.38-3.45-9.57-8.09-9.57-13.93,0-3.03.85-5.74,2.57-8.12,1.71-2.38,4.17-4.24,7.37-5.57,3.2-1.34,6.8-2.01,10.78-2.01s7.59.73,10.72,2.18c3.14,1.45,5.57,3.5,7.31,6.15,1.74,2.65,2.6,5.66,2.6,9.03h-11.57c0-2.57-.81-4.57-2.43-6-1.62-1.43-3.9-2.14-6.83-2.14s-5.03.6-6.6,1.79c-1.57,1.2-2.35,2.77-2.35,4.73,0,1.83.92,3.36,2.76,4.59,1.84,1.23,4.55,2.39,8.12,3.47,6.58,1.98,11.38,4.44,14.39,7.37s4.51,6.58,4.51,10.96c0,4.86-1.84,8.67-5.52,11.44-3.68,2.76-8.63,4.15-14.85,4.15-4.32,0-8.25-.79-11.8-2.37-3.55-1.58-6.26-3.75-8.12-6.5-1.86-2.75-2.8-5.94-2.8-9.57h11.61c0,6.2,3.7,9.3,11.11,9.3,2.75,0,4.9-.56,6.44-1.68,1.54-1.12,2.31-2.68,2.31-4.69Z"/>
  <path class="cls-1" d="m48.6,76.01V19.84h19.67c6.81,0,11.98,1.31,15.51,3.92,3.52,2.61,5.28,6.44,5.28,11.48,0,2.75-.71,5.18-2.12,7.27-1.42,2.1-3.38,3.63-5.9,4.61,2.88.72,5.15,2.17,6.81,4.36,1.66,2.19,2.49,4.86,2.49,8.02,0,5.4-1.72,9.49-5.17,12.27-3.45,2.78-8.36,4.19-14.74,4.24h-21.83Zm11.57-32.63h8.56c5.84-.1,8.76-2.43,8.76-6.98,0-2.55-.74-4.38-2.22-5.5-1.48-1.12-3.81-1.68-7-1.68h-8.1v14.16Zm0,8.18v15.16h9.91c2.73,0,4.85-.65,6.38-1.95,1.53-1.3,2.29-3.09,2.29-5.38,0-5.14-2.66-7.75-7.99-7.83h-10.61Z"/>
</svg>