<?xml version="1.0" encoding="UTF-8"?>
<svg id="Capa_1" data-name="Capa 1" xmlns="http://www.w3.org/2000/svg" viewBox="0 0 340.28 83.46">
  <defs>
    <style>
      .cls-1 {
        font-family: Roboto-Bold, Roboto;
        font-size: 17px;
        font-weight: 700;
        letter-spacing: -.04em;
      }

      .cls-1, .cls-2 {
        fill: #1d1d1b;
      }
    </style>
  </defs>
  <g>
    <path class="cls-2" d="m52.58,53.84c0-2.19-.77-3.86-2.31-5.03-1.54-1.17-4.32-2.4-8.33-3.7-4.01-1.3-7.19-2.58-9.53-3.84-6.38-3.45-9.57-8.09-9.57-13.93,0-3.03.85-5.74,2.57-8.12,1.71-2.38,4.17-4.24,7.37-5.57,3.2-1.34,6.8-2.01,10.78-2.01s7.59.73,10.72,2.18c3.14,1.45,5.57,3.5,7.31,6.15,1.74,2.65,2.6,5.66,2.6,9.03h-11.57c0-2.57-.81-4.57-2.43-6-1.62-1.43-3.9-2.14-6.83-2.14s-5.03.6-6.6,1.79c-1.57,1.2-2.35,2.77-2.35,4.73,0,1.83.92,3.36,2.76,4.59,1.84,1.23,4.55,2.39,8.12,3.47,6.58,1.98,11.38,4.44,14.39,7.37s4.51,6.58,4.51,10.96c0,4.86-1.84,8.67-5.52,11.44-3.68,2.76-8.63,4.15-14.85,4.15-4.32,0-8.25-.79-11.8-2.37-3.55-1.58-6.26-3.75-8.12-6.5-1.86-2.75-2.8-5.94-2.8-9.57h11.61c0,6.2,3.7,9.3,11.11,9.3,2.75,0,4.9-.56,6.44-1.68,1.54-1.12,2.31-2.68,2.31-4.69Z"/>
    <path class="cls-2" d="m63.53,16.03c0-1.67.56-3.05,1.68-4.13,1.12-1.08,2.64-1.62,4.57-1.62s3.42.54,4.55,1.62c1.13,1.08,1.7,2.46,1.7,4.13s-.57,3.09-1.72,4.17c-1.15,1.08-2.66,1.62-4.53,1.62s-3.39-.54-4.53-1.62c-1.14-1.08-1.72-2.47-1.72-4.17Zm11.84,52.54h-11.19V26.83h11.19v41.74Z"/>
    <path class="cls-2" d="m92.49,16.57v10.26h7.14v8.18h-7.14v20.83c0,1.54.3,2.65.89,3.32.59.67,1.72,1,3.39,1,1.23,0,2.33-.09,3.28-.27v8.45c-2.19.67-4.44,1-6.75,1-7.82,0-11.8-3.95-11.96-11.84v-22.49h-6.09v-8.18h6.09v-10.26h11.15Z"/>
    <path class="cls-2" d="m115.19,69.19c-6.12,0-11.1-1.88-14.95-5.63-3.84-3.75-5.77-8.76-5.77-15.01v-1.08c0-4.19.81-7.94,2.43-11.24,1.62-3.3,3.92-5.85,6.89-7.64,2.97-1.79,6.36-2.68,10.16-2.68,5.71,0,10.2,1.8,13.48,5.4,3.28,3.6,4.92,8.71,4.92,15.31v4.55h-26.58c.36,2.73,1.45,4.91,3.26,6.56,1.81,1.65,4.11,2.47,6.89,2.47,4.29,0,7.65-1.56,10.07-4.67l5.48,6.13c-1.67,2.37-3.93,4.21-6.79,5.54-2.85,1.32-6.02,1.99-9.49,1.99Zm-1.27-34.29c-2.21,0-4.01.75-5.38,2.25-1.38,1.5-2.26,3.64-2.64,6.43h15.51v-.89c-.05-2.48-.72-4.4-2.01-5.75-1.29-1.36-3.11-2.03-5.48-2.03Z"/>
    <path class="cls-2" d="m130.48,68.57V12.41h19.67c6.81,0,11.98,1.31,15.51,3.92,3.52,2.61,5.28,6.44,5.28,11.48,0,2.75-.71,5.18-2.12,7.27-1.42,2.1-3.38,3.63-5.9,4.61,2.88.72,5.15,2.17,6.81,4.36,1.66,2.19,2.49,4.86,2.49,8.02,0,5.4-1.72,9.49-5.17,12.27-3.45,2.78-8.36,4.19-14.74,4.24h-21.83Zm11.57-32.63h8.56c5.84-.1,8.76-2.43,8.76-6.98,0-2.55-.74-4.38-2.22-5.5-1.48-1.12-3.81-1.68-7-1.68h-8.1v14.16Zm0,8.18v15.16h9.91c2.73,0,4.85-.65,6.38-1.95,1.53-1.3,2.29-3.09,2.29-5.38,0-5.14-2.66-7.75-7.99-7.83h-10.61Z"/>
    <path class="cls-2" d="m192.93,69.34c-6.12,0-11.1-1.88-14.95-5.63-3.84-3.75-5.77-8.76-5.77-15.01v-1.08c0-4.19.81-7.94,2.43-11.24,1.62-3.3,3.92-5.85,6.88-7.64,2.97-1.79,6.36-2.68,10.17-2.68,5.71,0,10.2,1.8,13.48,5.4,3.28,3.6,4.92,8.71,4.92,15.31v4.55h-26.58c.36,2.73,1.45,4.91,3.26,6.56,1.81,1.65,4.11,2.47,6.89,2.47,4.29,0,7.65-1.56,10.07-4.67l5.48,6.13c-1.67,2.37-3.93,4.21-6.79,5.54-2.85,1.32-6.02,1.99-9.49,1.99Zm-1.27-34.29c-2.21,0-4.01.75-5.38,2.25-1.38,1.5-2.26,3.64-2.64,6.43h15.51v-.89c-.05-2.48-.72-4.4-2.01-5.75s-3.11-2.03-5.48-2.03Z"/>
    <path class="cls-2" d="m233.96,68.57c-.51-1-.89-2.25-1.12-3.74-2.7,3.01-6.21,4.51-10.53,4.51-4.09,0-7.48-1.18-10.16-3.55-2.69-2.37-4.03-5.35-4.03-8.95,0-4.42,1.64-7.82,4.92-10.18,3.28-2.37,8.02-3.56,14.21-3.59h5.13v-2.39c0-1.93-.5-3.47-1.49-4.63-.99-1.16-2.55-1.74-4.69-1.74-1.88,0-3.35.45-4.42,1.35-1.07.9-1.6,2.13-1.6,3.7h-11.15c0-2.42.75-4.65,2.24-6.71,1.49-2.06,3.6-3.67,6.33-4.84,2.73-1.17,5.79-1.75,9.18-1.75,5.14,0,9.23,1.29,12.25,3.88,3.02,2.58,4.53,6.22,4.53,10.9v18.09c.03,3.96.58,6.96,1.66,8.99v.66h-11.26Zm-9.22-7.75c1.65,0,3.16-.37,4.55-1.1,1.39-.73,2.42-1.72,3.09-2.95v-7.17h-4.17c-5.58,0-8.55,1.93-8.91,5.79l-.04.66c0,1.39.49,2.53,1.46,3.43s2.31,1.35,4.01,1.35Z"/>
    <path class="cls-2" d="m254.53,26.83l.35,4.67c2.96-3.63,6.96-5.44,12-5.44,5.37,0,9.07,2.12,11.07,6.36,2.93-4.24,7.11-6.36,12.54-6.36,4.53,0,7.89,1.32,10.11,3.95,2.21,2.64,3.32,6.6,3.32,11.9v26.65h-11.19v-26.62c0-2.37-.46-4.09-1.39-5.19-.93-1.09-2.56-1.64-4.9-1.64-3.34,0-5.66,1.59-6.94,4.78l.04,28.66h-11.15v-26.58c0-2.42-.48-4.17-1.43-5.25-.95-1.08-2.57-1.62-4.86-1.62-3.16,0-5.45,1.31-6.87,3.93v29.51h-11.15V26.83h10.45Z"/>
  </g>
  <text class="cls-1" transform="translate(306.51 68.57)"><tspan x="0" y="0">©</tspan></text>
</svg>