<svg xmlns="http://www.w3.org/2000/svg" xmlns:xlink="http://www.w3.org/1999/xlink" width="1080" zoomAndPan="magnify" viewBox="0 0 810 809.999993" height="1080" preserveAspectRatio="xMidYMid meet" version="1.0"><defs><clipPath id="03e3a23d4b"><path d="M 150 122.457031 L 669 122.457031 L 669 687.542969 L 150 687.542969 Z M 150 122.457031 " clip-rule="nonzero"/></clipPath><clipPath id="7b5a945d0b"><path d="M 141 122.457031 L 660 122.457031 L 660 687.542969 L 141 687.542969 Z M 141 122.457031 " clip-rule="nonzero"/></clipPath></defs><g clip-path="url(#03e3a23d4b)"><path fill="#fec30a" d="M 210.671875 191.308594 C 209.96875 191.308594 209.273438 191.242188 208.582031 191.105469 C 207.894531 190.964844 207.222656 190.761719 206.574219 190.496094 C 205.925781 190.226562 205.308594 189.894531 204.726562 189.503906 C 204.140625 189.117188 203.601562 188.671875 203.101562 188.175781 C 202.605469 187.679688 202.164062 187.136719 201.773438 186.554688 C 201.382812 185.96875 201.050781 185.351562 200.785156 184.703125 C 200.515625 184.054688 200.3125 183.382812 200.175781 182.695312 C 200.039062 182.003906 199.96875 181.308594 199.96875 180.605469 C 199.96875 179.902344 200.039062 179.207031 200.175781 178.519531 C 200.3125 177.828125 200.515625 177.160156 200.785156 176.511719 C 201.050781 175.863281 201.382812 175.246094 201.773438 174.660156 C 202.164062 174.078125 202.605469 173.535156 203.101562 173.039062 C 203.601562 172.542969 204.140625 172.097656 204.726562 171.707031 C 205.308594 171.316406 205.925781 170.988281 206.574219 170.71875 C 207.222656 170.449219 207.894531 170.246094 208.582031 170.109375 C 209.273438 169.972656 209.96875 169.90625 210.671875 169.90625 C 211.375 169.90625 212.070312 169.972656 212.757812 170.109375 C 213.449219 170.246094 214.117188 170.449219 214.765625 170.71875 C 215.414062 170.988281 216.03125 171.316406 216.617188 171.707031 C 217.199219 172.097656 217.742188 172.542969 218.238281 173.039062 C 218.734375 173.535156 219.179688 174.078125 219.570312 174.660156 C 219.960938 175.246094 220.289062 175.863281 220.558594 176.511719 C 220.828125 177.160156 221.03125 177.828125 221.167969 178.519531 C 221.304688 179.207031 221.375 179.902344 221.375 180.605469 C 221.375 181.308594 221.304688 182.003906 221.167969 182.695312 C 221.03125 183.382812 220.828125 184.054688 220.558594 184.703125 C 220.289062 185.351562 219.960938 185.96875 219.570312 186.554688 C 219.179688 187.136719 218.734375 187.679688 218.238281 188.175781 C 217.742188 188.671875 217.199219 189.117188 216.617188 189.503906 C 216.03125 189.894531 215.414062 190.226562 214.765625 190.496094 C 214.117188 190.761719 213.449219 190.964844 212.757812 191.105469 C 212.070312 191.242188 211.375 191.308594 210.671875 191.308594 Z M 267.320312 169.90625 C 266.621094 169.90625 265.921875 169.972656 265.234375 170.109375 C 264.546875 170.246094 263.875 170.449219 263.226562 170.71875 C 262.578125 170.988281 261.960938 171.316406 261.375 171.707031 C 260.792969 172.097656 260.25 172.542969 259.753906 173.039062 C 259.257812 173.535156 258.8125 174.078125 258.421875 174.660156 C 258.03125 175.246094 257.703125 175.863281 257.433594 176.511719 C 257.164062 177.160156 256.960938 177.828125 256.824219 178.519531 C 256.6875 179.207031 256.621094 179.902344 256.621094 180.605469 C 256.621094 181.308594 256.6875 182.003906 256.824219 182.695312 C 256.960938 183.382812 257.164062 184.054688 257.433594 184.703125 C 257.703125 185.351562 258.03125 185.96875 258.421875 186.554688 C 258.8125 187.136719 259.257812 187.679688 259.753906 188.175781 C 260.25 188.671875 260.792969 189.117188 261.375 189.503906 C 261.960938 189.894531 262.578125 190.226562 263.226562 190.496094 C 263.875 190.761719 264.546875 190.964844 265.234375 191.105469 C 265.921875 191.242188 266.621094 191.308594 267.320312 191.308594 C 268.023438 191.308594 268.722656 191.242188 269.410156 191.105469 C 270.097656 190.964844 270.769531 190.761719 271.417969 190.496094 C 272.066406 190.226562 272.683594 189.894531 273.269531 189.503906 C 273.851562 189.117188 274.394531 188.671875 274.890625 188.175781 C 275.386719 187.679688 275.832031 187.136719 276.222656 186.554688 C 276.609375 185.96875 276.941406 185.351562 277.210938 184.703125 C 277.480469 184.054688 277.683594 183.382812 277.820312 182.695312 C 277.957031 182.003906 278.023438 181.308594 278.023438 180.605469 C 278.023438 179.902344 277.957031 179.207031 277.820312 178.519531 C 277.683594 177.828125 277.480469 177.160156 277.210938 176.511719 C 276.941406 175.863281 276.609375 175.246094 276.222656 174.660156 C 275.832031 174.078125 275.386719 173.535156 274.890625 173.039062 C 274.394531 172.542969 273.851562 172.097656 273.269531 171.707031 C 272.683594 171.316406 272.066406 170.988281 271.417969 170.71875 C 270.769531 170.449219 270.097656 170.246094 269.410156 170.109375 C 268.722656 169.972656 268.023438 169.90625 267.320312 169.90625 Z M 320.976562 169.90625 C 320.273438 169.90625 319.578125 169.972656 318.890625 170.109375 C 318.199219 170.246094 317.53125 170.449219 316.882812 170.71875 C 316.230469 170.988281 315.613281 171.316406 315.03125 171.707031 C 314.445312 172.097656 313.90625 172.542969 313.410156 173.039062 C 312.910156 173.535156 312.46875 174.078125 312.078125 174.660156 C 311.6875 175.246094 311.359375 175.863281 311.089844 176.511719 C 310.820312 177.160156 310.617188 177.828125 310.480469 178.519531 C 310.34375 179.207031 310.273438 179.902344 310.273438 180.605469 C 310.273438 181.308594 310.34375 182.003906 310.480469 182.695312 C 310.617188 183.382812 310.820312 184.054688 311.089844 184.703125 C 311.359375 185.351562 311.6875 185.96875 312.078125 186.554688 C 312.46875 187.136719 312.910156 187.679688 313.410156 188.175781 C 313.90625 188.671875 314.445312 189.117188 315.03125 189.503906 C 315.613281 189.894531 316.230469 190.226562 316.882812 190.496094 C 317.53125 190.761719 318.199219 190.964844 318.890625 191.105469 C 319.578125 191.242188 320.273438 191.308594 320.976562 191.308594 C 321.679688 191.308594 322.375 191.242188 323.066406 191.105469 C 323.753906 190.964844 324.421875 190.761719 325.074219 190.496094 C 325.722656 190.226562 326.339844 189.894531 326.921875 189.503906 C 327.507812 189.117188 328.046875 188.671875 328.542969 188.175781 C 329.042969 187.679688 329.484375 187.136719 329.875 186.554688 C 330.265625 185.96875 330.59375 185.351562 330.863281 184.703125 C 331.132812 184.054688 331.335938 183.382812 331.472656 182.695312 C 331.609375 182.003906 331.679688 181.308594 331.679688 180.605469 C 331.679688 179.902344 331.609375 179.207031 331.472656 178.519531 C 331.335938 177.828125 331.132812 177.160156 330.863281 176.511719 C 330.59375 175.863281 330.265625 175.246094 329.875 174.660156 C 329.484375 174.078125 329.042969 173.535156 328.542969 173.039062 C 328.046875 172.542969 327.507812 172.097656 326.921875 171.707031 C 326.339844 171.316406 325.722656 170.988281 325.074219 170.71875 C 324.421875 170.449219 323.753906 170.246094 323.066406 170.109375 C 322.375 169.972656 321.679688 169.90625 320.976562 169.90625 Z M 667.949219 534.070312 C 667.660156 535.066406 667.246094 536.011719 666.707031 536.898438 C 666.167969 537.785156 665.523438 538.585938 664.769531 539.300781 C 664.019531 540.015625 663.1875 540.617188 662.273438 541.113281 C 661.359375 541.605469 660.394531 541.96875 659.386719 542.203125 C 637.695312 549.910156 616.003906 557.59375 594.316406 565.25 C 593.886719 565.394531 593.386719 565.535156 592.816406 565.679688 C 593.097656 566.132812 593.335938 566.609375 593.53125 567.105469 C 603.304688 594.433594 613.007812 621.804688 622.640625 649.226562 C 623.28125 651.011719 623.78125 652.867188 624.28125 654.722656 L 625.210938 658.148438 L 622.640625 663.570312 L 621.785156 663.996094 C 621.214844 664.28125 620.644531 664.566406 620.074219 664.925781 C 618.699219 665.730469 617.273438 666.417969 615.792969 666.992188 C 597.882812 673.414062 580.046875 679.695312 562.136719 685.972656 C 560.625 686.496094 559.082031 686.878906 557.5 687.113281 C 556.851562 687.199219 556.207031 687.316406 555.574219 687.472656 L 554.644531 687.613281 L 549.222656 685.046875 L 547.796875 681.835938 C 547.011719 680.050781 546.226562 678.339844 545.582031 676.554688 C 535.878906 649.15625 526.175781 621.78125 516.472656 594.433594 C 516.332031 594.003906 516.1875 593.503906 516.046875 593.078125 C 515.65625 593.164062 515.273438 593.28125 514.902344 593.433594 L 449.546875 616.550781 C 448.625 617.015625 447.65625 617.347656 446.644531 617.550781 C 445.632812 617.753906 444.609375 617.816406 443.578125 617.742188 C 442.546875 617.664062 441.546875 617.453125 440.574219 617.105469 C 439.601562 616.757812 438.691406 616.289062 437.847656 615.695312 C 437.101562 614.976562 436.464844 614.171875 435.929688 613.28125 C 435.398438 612.394531 434.992188 611.453125 434.710938 610.457031 C 434.429688 609.457031 434.28125 608.441406 434.269531 607.40625 C 434.253906 606.371094 434.378906 605.351562 434.636719 604.347656 L 448.40625 507.957031 L 188.054688 507.957031 C 186.808594 507.953125 185.566406 507.886719 184.324219 507.761719 C 183.085938 507.632812 181.855469 507.449219 180.636719 507.199219 C 179.414062 506.953125 178.207031 506.648438 177.015625 506.285156 C 175.824219 505.917969 174.65625 505.496094 173.503906 505.015625 C 172.355469 504.539062 171.234375 504.003906 170.136719 503.414062 C 169.039062 502.824219 167.972656 502.183594 166.9375 501.488281 C 165.902344 500.796875 164.902344 500.054688 163.941406 499.261719 C 162.980469 498.46875 162.058594 497.632812 161.179688 496.75 C 160.300781 495.871094 159.464844 494.949219 158.675781 493.984375 C 157.886719 493.019531 157.144531 492.019531 156.453125 490.984375 C 155.761719 489.949219 155.121094 488.882812 154.535156 487.78125 C 153.945312 486.683594 153.414062 485.558594 152.9375 484.410156 C 152.460938 483.257812 152.039062 482.085938 151.675781 480.894531 C 151.3125 479.703125 151.011719 478.496094 150.765625 477.277344 C 150.523438 476.054688 150.335938 474.824219 150.214844 473.585938 C 150.089844 472.34375 150.027344 471.101562 150.023438 469.855469 L 150.023438 160.488281 C 150.023438 159.242188 150.085938 158 150.210938 156.761719 C 150.332031 155.519531 150.515625 154.289062 150.761719 153.070312 C 151.003906 151.847656 151.308594 150.640625 151.667969 149.453125 C 152.03125 148.261719 152.453125 147.089844 152.929688 145.9375 C 153.40625 144.789062 153.9375 143.664062 154.523438 142.566406 C 155.113281 141.46875 155.753906 140.402344 156.445312 139.367188 C 157.136719 138.332031 157.878906 137.332031 158.667969 136.371094 C 159.457031 135.410156 160.292969 134.488281 161.171875 133.605469 C 162.054688 132.726562 162.976562 131.890625 163.9375 131.101562 C 164.898438 130.308594 165.898438 129.570312 166.933594 128.878906 C 167.96875 128.183594 169.035156 127.546875 170.132812 126.957031 C 171.230469 126.371094 172.355469 125.839844 173.503906 125.363281 C 174.65625 124.882812 175.828125 124.464844 177.019531 124.101562 C 178.210938 123.742188 179.414062 123.4375 180.636719 123.195312 C 181.859375 122.949219 183.085938 122.765625 184.328125 122.644531 C 185.566406 122.519531 186.808594 122.457031 188.054688 122.457031 L 630.0625 122.457031 C 631.304688 122.457031 632.546875 122.519531 633.789062 122.644531 C 635.027344 122.765625 636.257812 122.949219 637.476562 123.195312 C 638.699219 123.4375 639.90625 123.742188 641.097656 124.101562 C 642.289062 124.464844 643.457031 124.882812 644.609375 125.363281 C 645.757812 125.839844 646.882812 126.371094 647.980469 126.957031 C 649.078125 127.546875 650.144531 128.183594 651.179688 128.878906 C 652.214844 129.570312 653.214844 130.308594 654.175781 131.101562 C 655.140625 131.890625 656.0625 132.726562 656.941406 133.605469 C 657.820312 134.488281 658.65625 135.410156 659.445312 136.371094 C 660.238281 137.332031 660.976562 138.332031 661.671875 139.367188 C 662.363281 140.402344 663.003906 141.46875 663.589844 142.566406 C 664.175781 143.664062 664.707031 144.789062 665.1875 145.9375 C 665.664062 147.089844 666.082031 148.261719 666.445312 149.453125 C 666.808594 150.640625 667.109375 151.847656 667.355469 153.070312 C 667.597656 154.289062 667.78125 155.519531 667.902344 156.761719 C 668.027344 158 668.089844 159.242188 668.089844 160.488281 L 668.089844 469.855469 C 668.085938 471.761719 667.9375 473.65625 667.652344 475.539062 C 667.363281 477.421875 666.9375 479.273438 666.371094 481.089844 C 665.804688 482.910156 665.109375 484.675781 664.277344 486.390625 C 663.449219 488.105469 662.496094 489.75 661.421875 491.320312 C 660.34375 492.894531 659.160156 494.378906 657.863281 495.773438 C 656.5625 497.167969 655.171875 498.457031 653.679688 499.644531 C 652.1875 500.828125 650.617188 501.898438 648.96875 502.847656 C 647.316406 503.800781 645.605469 504.621094 643.832031 505.316406 L 663.308594 523.367188 C 664.148438 523.960938 664.890625 524.660156 665.539062 525.457031 C 666.1875 526.257812 666.714844 527.128906 667.125 528.070312 C 667.535156 529.015625 667.808594 529.996094 667.949219 531.015625 C 668.085938 532.03125 668.085938 533.050781 667.949219 534.070312 Z M 171.429688 217.351562 L 646.6875 217.351562 L 646.6875 160.488281 C 646.683594 159.941406 646.65625 159.398438 646.605469 158.859375 C 646.550781 158.316406 646.46875 157.777344 646.363281 157.246094 C 646.257812 156.710938 646.125 156.183594 645.964844 155.664062 C 645.808594 155.140625 645.625 154.628906 645.417969 154.125 C 645.207031 153.625 644.976562 153.132812 644.71875 152.652344 C 644.460938 152.171875 644.183594 151.707031 643.878906 151.253906 C 643.578125 150.800781 643.253906 150.363281 642.90625 149.945312 C 642.5625 149.523438 642.195312 149.121094 641.8125 148.734375 C 641.425781 148.351562 641.023438 147.984375 640.605469 147.640625 C 640.183594 147.292969 639.746094 146.972656 639.292969 146.667969 C 638.839844 146.367188 638.375 146.085938 637.894531 145.828125 C 637.414062 145.574219 636.921875 145.339844 636.421875 145.132812 C 635.917969 144.921875 635.40625 144.738281 634.886719 144.582031 C 634.363281 144.421875 633.835938 144.289062 633.304688 144.183594 C 632.769531 144.078125 632.230469 143.996094 631.691406 143.945312 C 631.148438 143.890625 630.605469 143.863281 630.0625 143.863281 L 188.054688 143.863281 C 187.507812 143.863281 186.96875 143.894531 186.425781 143.949219 C 185.882812 144.003906 185.347656 144.085938 184.816406 144.191406 C 184.28125 144.300781 183.753906 144.433594 183.234375 144.59375 C 182.714844 144.75 182.203125 144.9375 181.703125 145.144531 C 181.199219 145.355469 180.707031 145.585938 180.230469 145.84375 C 179.75 146.101562 179.285156 146.382812 178.832031 146.683594 C 178.378906 146.984375 177.945312 147.308594 177.523438 147.65625 C 177.105469 148 176.703125 148.367188 176.316406 148.75 C 175.933594 149.132812 175.566406 149.535156 175.222656 149.957031 C 174.875 150.378906 174.554688 150.8125 174.25 151.265625 C 173.949219 151.71875 173.667969 152.183594 173.410156 152.664062 C 173.152344 153.140625 172.921875 153.632812 172.710938 154.132812 C 172.503906 154.636719 172.316406 155.148438 172.160156 155.667969 C 172 156.1875 171.867188 156.714844 171.757812 157.246094 C 171.652344 157.78125 171.570312 158.316406 171.515625 158.859375 C 171.460938 159.398438 171.429688 159.941406 171.429688 160.488281 Z M 451.472656 486.550781 L 455.183594 460.367188 L 203.894531 460.367188 L 203.894531 266.296875 L 614.222656 266.296875 L 614.222656 460.367188 L 595.3125 460.367188 L 623.570312 486.550781 L 630.0625 486.550781 C 630.605469 486.550781 631.152344 486.523438 631.695312 486.46875 C 632.238281 486.414062 632.777344 486.332031 633.3125 486.226562 C 633.847656 486.117188 634.375 485.984375 634.898438 485.824219 C 635.417969 485.667969 635.929688 485.480469 636.433594 485.273438 C 636.9375 485.0625 637.429688 484.828125 637.910156 484.570312 C 638.394531 484.3125 638.859375 484.03125 639.3125 483.726562 C 639.765625 483.421875 640.203125 483.097656 640.625 482.75 C 641.046875 482.402344 641.449219 482.035156 641.832031 481.648438 C 642.21875 481.261719 642.582031 480.859375 642.929688 480.433594 C 643.273438 480.011719 643.597656 479.574219 643.898438 479.121094 C 644.203125 478.664062 644.480469 478.199219 644.738281 477.714844 C 644.992188 477.234375 645.226562 476.742188 645.433594 476.234375 C 645.640625 475.730469 645.824219 475.21875 645.980469 474.695312 C 646.136719 474.171875 646.269531 473.644531 646.375 473.109375 C 646.480469 472.574219 646.558594 472.03125 646.609375 471.488281 C 646.660156 470.945312 646.6875 470.402344 646.6875 469.855469 L 646.6875 238.757812 L 171.429688 238.757812 L 171.429688 469.855469 C 171.429688 470.402344 171.457031 470.945312 171.507812 471.488281 C 171.5625 472.03125 171.644531 472.570312 171.75 473.105469 C 171.855469 473.640625 171.988281 474.167969 172.144531 474.6875 C 172.304688 475.210938 172.488281 475.722656 172.695312 476.226562 C 172.902344 476.730469 173.136719 477.222656 173.390625 477.707031 C 173.648438 478.1875 173.925781 478.65625 174.230469 479.109375 C 174.53125 479.5625 174.855469 480 175.199219 480.421875 C 175.546875 480.84375 175.910156 481.25 176.296875 481.636719 C 176.679688 482.019531 177.082031 482.386719 177.503906 482.734375 C 177.925781 483.082031 178.359375 483.40625 178.8125 483.710938 C 179.265625 484.015625 179.730469 484.296875 180.210938 484.554688 C 180.691406 484.8125 181.183594 485.046875 181.6875 485.257812 C 182.191406 485.46875 182.703125 485.65625 183.222656 485.816406 C 183.746094 485.976562 184.273438 486.109375 184.808594 486.21875 C 185.339844 486.328125 185.878906 486.410156 186.421875 486.464844 C 186.964844 486.519531 187.507812 486.550781 188.054688 486.550781 Z M 479.015625 355.699219 L 479.941406 355.484375 L 485.792969 358.410156 L 490.789062 363.261719 C 494.425781 366.683594 498.066406 370.179688 501.703125 373.605469 L 572.195312 438.960938 L 592.816406 438.960938 L 592.816406 287.703125 L 225.3125 287.703125 L 225.3125 438.960938 L 458.253906 438.960938 L 468.457031 367.398438 C 469.667969 359.335938 471.378906 357.410156 479.015625 355.699219 Z M 639.335938 528.292969 L 617.359375 507.957031 L 594.316406 486.550781 L 565.988281 460.367188 L 542.945312 438.960938 L 485.9375 386.164062 L 478.445312 438.960938 L 475.375 460.367188 L 471.667969 486.550781 L 468.597656 507.957031 L 456.46875 593.003906 L 516.1875 571.8125 C 518.25 570.996094 520.390625 570.542969 522.609375 570.457031 C 523.90625 570.4375 525.144531 570.699219 526.320312 571.242188 C 527.824219 572.171875 529.097656 573.355469 530.136719 574.789062 C 531.171875 576.222656 531.898438 577.800781 532.3125 579.519531 L 562.421875 664.28125 L 601.949219 650.371094 C 601.898438 650.113281 601.804688 649.875 601.664062 649.65625 C 591.675781 621.402344 581.664062 593.171875 571.625 564.964844 C 571.414062 564.601562 571.226562 564.226562 571.0625 563.839844 C 570.898438 563.453125 570.757812 563.058594 570.640625 562.65625 C 570.527344 562.25 570.433594 561.84375 570.367188 561.425781 C 570.300781 561.011719 570.257812 560.597656 570.242188 560.175781 C 570.226562 559.757812 570.238281 559.335938 570.273438 558.917969 C 570.308594 558.5 570.367188 558.085938 570.453125 557.675781 C 570.539062 557.261719 570.648438 556.859375 570.785156 556.460938 C 570.917969 556.0625 571.078125 555.675781 571.261719 555.296875 C 571.441406 554.917969 571.648438 554.550781 571.875 554.199219 C 572.101562 553.84375 572.347656 553.507812 572.617188 553.183594 C 572.882812 552.859375 573.171875 552.554688 573.476562 552.265625 C 573.78125 551.976562 574.101562 551.707031 574.441406 551.457031 C 574.777344 551.210938 575.128906 550.980469 575.496094 550.773438 C 575.863281 550.570312 576.238281 550.386719 576.628906 550.222656 C 577.015625 550.0625 577.410156 549.925781 577.816406 549.816406 C 578.222656 549.703125 578.632812 549.617188 579.046875 549.554688 C 598.238281 542.703125 617.457031 535.902344 636.695312 529.148438 C 637.554688 528.789062 638.410156 528.578125 639.335938 528.292969 Z M 639.335938 528.292969 " fill-opacity="1" fill-rule="nonzero"/></g><g clip-path="url(#7b5a945d0b)"><path fill="#35ffff" d="M 201.898438 191.308594 C 201.199219 191.308594 200.5 191.242188 199.8125 191.105469 C 199.121094 190.964844 198.453125 190.761719 197.804688 190.496094 C 197.15625 190.226562 196.539062 189.894531 195.953125 189.503906 C 195.371094 189.117188 194.828125 188.671875 194.332031 188.175781 C 193.835938 187.679688 193.390625 187.136719 193 186.554688 C 192.609375 185.96875 192.28125 185.351562 192.011719 184.703125 C 191.742188 184.054688 191.539062 183.382812 191.402344 182.695312 C 191.265625 182.003906 191.199219 181.308594 191.199219 180.605469 C 191.199219 179.902344 191.265625 179.207031 191.402344 178.519531 C 191.539062 177.828125 191.742188 177.160156 192.011719 176.511719 C 192.28125 175.863281 192.609375 175.246094 193 174.660156 C 193.390625 174.078125 193.835938 173.535156 194.332031 173.039062 C 194.828125 172.542969 195.371094 172.097656 195.953125 171.707031 C 196.539062 171.316406 197.15625 170.988281 197.804688 170.71875 C 198.453125 170.449219 199.121094 170.246094 199.8125 170.109375 C 200.5 169.972656 201.199219 169.90625 201.898438 169.90625 C 202.601562 169.90625 203.296875 169.972656 203.988281 170.109375 C 204.675781 170.246094 205.347656 170.449219 205.996094 170.71875 C 206.644531 170.988281 207.261719 171.316406 207.847656 171.707031 C 208.429688 172.097656 208.972656 172.542969 209.46875 173.039062 C 209.964844 173.535156 210.410156 174.078125 210.796875 174.660156 C 211.1875 175.246094 211.519531 175.863281 211.789062 176.511719 C 212.058594 177.160156 212.257812 177.828125 212.398438 178.519531 C 212.535156 179.207031 212.601562 179.902344 212.601562 180.605469 C 212.601562 181.308594 212.535156 182.003906 212.398438 182.695312 C 212.257812 183.382812 212.058594 184.054688 211.789062 184.703125 C 211.519531 185.351562 211.1875 185.96875 210.796875 186.554688 C 210.410156 187.136719 209.964844 187.679688 209.46875 188.175781 C 208.972656 188.671875 208.429688 189.117188 207.847656 189.503906 C 207.261719 189.894531 206.644531 190.226562 205.996094 190.496094 C 205.347656 190.761719 204.675781 190.964844 203.988281 191.105469 C 203.296875 191.242188 202.601562 191.308594 201.898438 191.308594 Z M 258.550781 169.90625 C 257.847656 169.90625 257.152344 169.972656 256.464844 170.109375 C 255.773438 170.246094 255.105469 170.449219 254.457031 170.71875 C 253.804688 170.988281 253.191406 171.316406 252.605469 171.707031 C 252.019531 172.097656 251.480469 172.542969 250.984375 173.039062 C 250.488281 173.535156 250.042969 174.078125 249.652344 174.660156 C 249.261719 175.246094 248.933594 175.863281 248.664062 176.511719 C 248.394531 177.160156 248.191406 177.828125 248.054688 178.519531 C 247.917969 179.207031 247.847656 179.902344 247.847656 180.605469 C 247.847656 181.308594 247.917969 182.003906 248.054688 182.695312 C 248.191406 183.382812 248.394531 184.054688 248.664062 184.703125 C 248.933594 185.351562 249.261719 185.96875 249.652344 186.554688 C 250.042969 187.136719 250.488281 187.679688 250.984375 188.175781 C 251.480469 188.671875 252.019531 189.117188 252.605469 189.503906 C 253.191406 189.894531 253.804688 190.226562 254.457031 190.496094 C 255.105469 190.761719 255.773438 190.964844 256.464844 191.105469 C 257.152344 191.242188 257.847656 191.308594 258.550781 191.308594 C 259.253906 191.308594 259.949219 191.242188 260.640625 191.105469 C 261.328125 190.964844 261.996094 190.761719 262.648438 190.496094 C 263.296875 190.226562 263.914062 189.894531 264.496094 189.503906 C 265.082031 189.117188 265.621094 188.671875 266.117188 188.175781 C 266.617188 187.679688 267.058594 187.136719 267.449219 186.554688 C 267.839844 185.96875 268.171875 185.351562 268.4375 184.703125 C 268.707031 184.054688 268.910156 183.382812 269.046875 182.695312 C 269.183594 182.003906 269.253906 181.308594 269.253906 180.605469 C 269.253906 179.902344 269.183594 179.207031 269.046875 178.519531 C 268.910156 177.828125 268.707031 177.160156 268.4375 176.511719 C 268.171875 175.863281 267.839844 175.246094 267.449219 174.660156 C 267.058594 174.078125 266.617188 173.535156 266.117188 173.039062 C 265.621094 172.542969 265.082031 172.097656 264.496094 171.707031 C 263.914062 171.316406 263.296875 170.988281 262.648438 170.71875 C 261.996094 170.449219 261.328125 170.246094 260.640625 170.109375 C 259.949219 169.972656 259.253906 169.90625 258.550781 169.90625 Z M 312.207031 169.90625 C 311.503906 169.90625 310.808594 169.972656 310.117188 170.109375 C 309.429688 170.246094 308.757812 170.449219 308.109375 170.71875 C 307.460938 170.988281 306.84375 171.316406 306.261719 171.707031 C 305.675781 172.097656 305.136719 172.542969 304.636719 173.039062 C 304.140625 173.535156 303.699219 174.078125 303.308594 174.660156 C 302.917969 175.246094 302.585938 175.863281 302.316406 176.511719 C 302.050781 177.160156 301.847656 177.828125 301.710938 178.519531 C 301.570312 179.207031 301.503906 179.902344 301.503906 180.605469 C 301.503906 181.308594 301.570312 182.003906 301.710938 182.695312 C 301.847656 183.382812 302.050781 184.054688 302.316406 184.703125 C 302.585938 185.351562 302.917969 185.96875 303.308594 186.554688 C 303.699219 187.136719 304.140625 187.679688 304.636719 188.175781 C 305.136719 188.671875 305.675781 189.117188 306.261719 189.503906 C 306.84375 189.894531 307.460938 190.226562 308.109375 190.496094 C 308.757812 190.761719 309.429688 190.964844 310.117188 191.105469 C 310.808594 191.242188 311.503906 191.308594 312.207031 191.308594 C 312.910156 191.308594 313.605469 191.242188 314.292969 191.105469 C 314.984375 190.964844 315.652344 190.761719 316.300781 190.496094 C 316.949219 190.226562 317.566406 189.894531 318.152344 189.503906 C 318.734375 189.117188 319.277344 188.671875 319.773438 188.175781 C 320.269531 187.679688 320.714844 187.136719 321.105469 186.554688 C 321.496094 185.96875 321.824219 185.351562 322.09375 184.703125 C 322.363281 184.054688 322.566406 183.382812 322.703125 182.695312 C 322.839844 182.003906 322.90625 181.308594 322.90625 180.605469 C 322.90625 179.902344 322.839844 179.207031 322.703125 178.519531 C 322.566406 177.828125 322.363281 177.160156 322.09375 176.511719 C 321.824219 175.863281 321.496094 175.246094 321.105469 174.660156 C 320.714844 174.078125 320.269531 173.535156 319.773438 173.039062 C 319.277344 172.542969 318.734375 172.097656 318.152344 171.707031 C 317.566406 171.316406 316.949219 170.988281 316.300781 170.71875 C 315.652344 170.449219 314.984375 170.246094 314.292969 170.109375 C 313.605469 169.972656 312.910156 169.90625 312.207031 169.90625 Z M 659.175781 534.070312 C 658.890625 535.066406 658.476562 536.011719 657.9375 536.898438 C 657.398438 537.785156 656.753906 538.585938 656 539.300781 C 655.246094 540.015625 654.414062 540.617188 653.5 541.113281 C 652.585938 541.605469 651.625 541.96875 650.613281 542.203125 C 628.925781 549.910156 607.234375 557.59375 585.542969 565.25 C 585.117188 565.394531 584.617188 565.535156 584.046875 565.679688 C 584.328125 566.132812 584.566406 566.609375 584.757812 567.105469 C 594.535156 594.433594 604.238281 621.804688 613.871094 649.226562 C 614.511719 651.011719 615.011719 652.867188 615.511719 654.722656 L 616.4375 658.148438 L 613.871094 663.570312 L 613.015625 663.996094 C 612.441406 664.28125 611.871094 664.566406 611.300781 664.925781 C 609.929688 665.730469 608.503906 666.417969 607.019531 666.992188 C 589.113281 673.414062 571.273438 679.695312 553.367188 685.972656 C 551.855469 686.496094 550.308594 686.878906 548.726562 687.113281 C 548.078125 687.199219 547.4375 687.316406 546.800781 687.472656 L 545.875 687.613281 L 540.453125 685.046875 L 539.023438 681.835938 C 538.238281 680.050781 537.453125 678.339844 536.8125 676.554688 C 527.109375 649.15625 517.40625 621.78125 507.703125 594.433594 C 507.558594 594.003906 507.417969 593.503906 507.273438 593.078125 C 506.882812 593.164062 506.503906 593.28125 506.132812 593.433594 L 440.777344 616.550781 C 439.855469 617.015625 438.886719 617.347656 437.875 617.550781 C 436.859375 617.753906 435.839844 617.816406 434.808594 617.742188 C 433.777344 617.664062 432.777344 617.453125 431.804688 617.105469 C 430.828125 616.757812 429.921875 616.289062 429.074219 615.695312 C 428.332031 614.976562 427.691406 614.171875 427.160156 613.28125 C 426.628906 612.394531 426.222656 611.453125 425.9375 610.457031 C 425.65625 609.457031 425.511719 608.441406 425.496094 607.40625 C 425.484375 606.371094 425.605469 605.351562 425.863281 604.347656 L 439.636719 507.957031 L 179.28125 507.957031 C 178.035156 507.953125 176.792969 507.886719 175.554688 507.761719 C 174.316406 507.632812 173.085938 507.449219 171.863281 507.199219 C 170.644531 506.953125 169.4375 506.648438 168.246094 506.285156 C 167.054688 505.917969 165.882812 505.496094 164.734375 505.015625 C 163.585938 504.539062 162.460938 504.003906 161.363281 503.414062 C 160.265625 502.824219 159.199219 502.183594 158.164062 501.488281 C 157.132812 500.796875 156.132812 500.054688 155.171875 499.261719 C 154.210938 498.46875 153.289062 497.632812 152.40625 496.75 C 151.527344 495.871094 150.691406 494.949219 149.902344 493.984375 C 149.113281 493.019531 148.375 492.019531 147.679688 490.984375 C 146.988281 489.949219 146.351562 488.882812 145.761719 487.78125 C 145.175781 486.683594 144.644531 485.558594 144.164062 484.410156 C 143.6875 483.257812 143.269531 482.085938 142.90625 480.894531 C 142.542969 479.703125 142.238281 478.496094 141.996094 477.277344 C 141.75 476.054688 141.566406 474.824219 141.441406 473.585938 C 141.320312 472.34375 141.253906 471.101562 141.253906 469.855469 L 141.253906 160.488281 C 141.253906 159.242188 141.316406 158 141.441406 156.761719 C 141.5625 155.519531 141.746094 154.289062 141.988281 153.070312 C 142.234375 151.847656 142.535156 150.640625 142.898438 149.453125 C 143.261719 148.261719 143.679688 147.089844 144.15625 145.9375 C 144.632812 144.789062 145.167969 143.664062 145.753906 142.566406 C 146.339844 141.46875 146.980469 140.402344 147.671875 139.367188 C 148.367188 138.332031 149.105469 137.332031 149.894531 136.371094 C 150.6875 135.410156 151.523438 134.488281 152.402344 133.605469 C 153.28125 132.726562 154.203125 131.890625 155.167969 131.101562 C 156.128906 130.308594 157.128906 129.570312 158.164062 128.878906 C 159.199219 128.183594 160.265625 127.546875 161.363281 126.957031 C 162.460938 126.371094 163.585938 125.839844 164.734375 125.363281 C 165.886719 124.882812 167.054688 124.464844 168.246094 124.101562 C 169.4375 123.742188 170.644531 123.4375 171.867188 123.195312 C 173.085938 122.949219 174.316406 122.765625 175.554688 122.644531 C 176.796875 122.519531 178.039062 122.457031 179.28125 122.457031 L 621.289062 122.457031 C 622.535156 122.457031 623.777344 122.519531 625.015625 122.644531 C 626.253906 122.765625 627.484375 122.949219 628.707031 123.195312 C 629.929688 123.4375 631.132812 123.742188 632.324219 124.101562 C 633.515625 124.464844 634.6875 124.882812 635.835938 125.363281 C 636.988281 125.839844 638.113281 126.371094 639.210938 126.957031 C 640.308594 127.546875 641.375 128.183594 642.410156 128.878906 C 643.445312 129.570312 644.445312 130.308594 645.40625 131.101562 C 646.367188 131.890625 647.289062 132.726562 648.171875 133.605469 C 649.050781 134.488281 649.886719 135.410156 650.675781 136.371094 C 651.464844 137.332031 652.207031 138.332031 652.898438 139.367188 C 653.589844 140.402344 654.230469 141.46875 654.820312 142.566406 C 655.40625 143.664062 655.9375 144.789062 656.414062 145.9375 C 656.890625 147.089844 657.3125 148.261719 657.675781 149.453125 C 658.035156 150.640625 658.339844 151.847656 658.582031 153.070312 C 658.828125 154.289062 659.011719 155.519531 659.132812 156.761719 C 659.257812 158 659.316406 159.242188 659.320312 160.488281 L 659.320312 469.855469 C 659.316406 471.761719 659.167969 473.65625 658.878906 475.539062 C 658.59375 477.421875 658.164062 479.273438 657.601562 481.089844 C 657.035156 482.910156 656.335938 484.675781 655.507812 486.390625 C 654.679688 488.105469 653.726562 489.75 652.648438 491.320312 C 651.574219 492.894531 650.386719 494.378906 649.089844 495.773438 C 647.792969 497.167969 646.398438 498.457031 644.910156 499.644531 C 643.417969 500.828125 641.847656 501.898438 640.195312 502.847656 C 638.546875 503.800781 636.835938 504.621094 635.0625 505.316406 L 654.539062 523.367188 C 655.378906 523.960938 656.121094 524.660156 656.769531 525.457031 C 657.417969 526.257812 657.945312 527.128906 658.355469 528.070312 C 658.761719 529.015625 659.035156 529.996094 659.175781 531.015625 C 659.316406 532.03125 659.316406 533.050781 659.175781 534.070312 Z M 162.65625 217.351562 L 637.914062 217.351562 L 637.914062 160.488281 C 637.914062 159.941406 637.886719 159.398438 637.832031 158.859375 C 637.78125 158.316406 637.699219 157.777344 637.59375 157.246094 C 637.484375 156.710938 637.355469 156.183594 637.195312 155.664062 C 637.039062 155.140625 636.855469 154.628906 636.644531 154.125 C 636.4375 153.625 636.203125 153.132812 635.949219 152.652344 C 635.691406 152.171875 635.410156 151.707031 635.109375 151.253906 C 634.804688 150.800781 634.480469 150.363281 634.136719 149.945312 C 633.792969 149.523438 633.425781 149.121094 633.042969 148.734375 C 632.65625 148.351562 632.253906 147.984375 631.832031 147.640625 C 631.410156 147.292969 630.976562 146.972656 630.523438 146.667969 C 630.070312 146.367188 629.605469 146.085938 629.125 145.828125 C 628.644531 145.574219 628.152344 145.339844 627.648438 145.132812 C 627.148438 144.921875 626.636719 144.738281 626.113281 144.582031 C 625.59375 144.421875 625.066406 144.289062 624.53125 144.183594 C 624 144.078125 623.460938 143.996094 622.917969 143.945312 C 622.378906 143.890625 621.835938 143.863281 621.289062 143.863281 L 179.28125 143.863281 C 178.738281 143.863281 178.195312 143.894531 177.65625 143.949219 C 177.113281 144.003906 176.578125 144.085938 176.042969 144.191406 C 175.511719 144.300781 174.984375 144.433594 174.464844 144.59375 C 173.945312 144.75 173.433594 144.9375 172.929688 145.144531 C 172.429688 145.355469 171.9375 145.585938 171.457031 145.84375 C 170.980469 146.101562 170.511719 146.382812 170.0625 146.683594 C 169.609375 146.984375 169.171875 147.308594 168.753906 147.65625 C 168.332031 148 167.929688 148.367188 167.546875 148.75 C 167.160156 149.132812 166.796875 149.535156 166.449219 149.957031 C 166.105469 150.378906 165.78125 150.8125 165.480469 151.265625 C 165.175781 151.71875 164.898438 152.183594 164.640625 152.664062 C 164.382812 153.140625 164.148438 153.632812 163.941406 154.132812 C 163.730469 154.636719 163.546875 155.148438 163.386719 155.667969 C 163.230469 156.1875 163.09375 156.714844 162.988281 157.246094 C 162.878906 157.78125 162.800781 158.316406 162.742188 158.859375 C 162.6875 159.398438 162.660156 159.941406 162.65625 160.488281 Z M 442.703125 486.550781 L 446.414062 460.367188 L 195.121094 460.367188 L 195.121094 266.296875 L 605.449219 266.296875 L 605.449219 460.367188 L 586.542969 460.367188 L 614.796875 486.550781 L 621.289062 486.550781 C 621.835938 486.550781 622.378906 486.523438 622.921875 486.46875 C 623.464844 486.414062 624.003906 486.332031 624.539062 486.226562 C 625.074219 486.117188 625.605469 485.984375 626.125 485.824219 C 626.648438 485.667969 627.160156 485.480469 627.664062 485.273438 C 628.167969 485.0625 628.660156 484.828125 629.140625 484.570312 C 629.621094 484.3125 630.089844 484.03125 630.542969 483.726562 C 630.996094 483.421875 631.433594 483.097656 631.851562 482.75 C 632.273438 482.402344 632.675781 482.035156 633.0625 481.648438 C 633.449219 481.261719 633.8125 480.859375 634.15625 480.433594 C 634.503906 480.011719 634.828125 479.574219 635.128906 479.121094 C 635.429688 478.664062 635.710938 478.199219 635.964844 477.714844 C 636.222656 477.234375 636.453125 476.742188 636.660156 476.234375 C 636.871094 475.730469 637.050781 475.21875 637.210938 474.695312 C 637.367188 474.171875 637.496094 473.644531 637.601562 473.109375 C 637.707031 472.574219 637.785156 472.03125 637.839844 471.488281 C 637.890625 470.945312 637.917969 470.402344 637.914062 469.855469 L 637.914062 238.757812 L 162.65625 238.757812 L 162.65625 469.855469 C 162.660156 470.402344 162.683594 470.945312 162.738281 471.488281 C 162.792969 472.03125 162.871094 472.570312 162.976562 473.105469 C 163.085938 473.640625 163.214844 474.167969 163.375 474.6875 C 163.53125 475.210938 163.714844 475.722656 163.925781 476.226562 C 164.132812 476.730469 164.363281 477.222656 164.621094 477.707031 C 164.878906 478.1875 165.15625 478.65625 165.460938 479.109375 C 165.761719 479.5625 166.085938 480 166.429688 480.421875 C 166.773438 480.84375 167.140625 481.25 167.523438 481.636719 C 167.910156 482.019531 168.3125 482.386719 168.734375 482.734375 C 169.152344 483.082031 169.589844 483.40625 170.042969 483.710938 C 170.496094 484.015625 170.960938 484.296875 171.441406 484.554688 C 171.921875 484.8125 172.414062 485.046875 172.917969 485.257812 C 173.417969 485.46875 173.929688 485.65625 174.453125 485.816406 C 174.972656 485.976562 175.5 486.109375 176.035156 486.21875 C 176.570312 486.328125 177.109375 486.410156 177.652344 486.464844 C 178.191406 486.519531 178.738281 486.550781 179.28125 486.550781 Z M 470.246094 355.699219 L 471.171875 355.484375 L 477.023438 358.410156 L 482.015625 363.261719 C 485.65625 366.683594 489.292969 370.179688 492.933594 373.605469 L 563.425781 438.960938 L 584.046875 438.960938 L 584.046875 287.703125 L 216.539062 287.703125 L 216.539062 438.960938 L 449.480469 438.960938 L 459.683594 367.398438 C 460.898438 359.335938 462.609375 357.410156 470.246094 355.699219 Z M 630.566406 528.292969 L 608.589844 507.957031 L 585.542969 486.550781 L 557.21875 460.367188 L 534.171875 438.960938 L 477.164062 386.164062 L 469.671875 438.960938 L 466.605469 460.367188 L 462.894531 486.550781 L 459.828125 507.957031 L 447.699219 593.003906 L 507.417969 571.8125 C 509.480469 570.996094 511.621094 570.542969 513.839844 570.457031 C 515.136719 570.4375 516.371094 570.699219 517.546875 571.242188 C 519.054688 572.171875 520.328125 573.355469 521.363281 574.789062 C 522.402344 576.222656 523.128906 577.800781 523.542969 579.519531 L 553.652344 664.28125 L 593.179688 650.371094 C 593.128906 650.113281 593.03125 649.875 592.894531 649.65625 C 582.90625 621.402344 572.890625 593.171875 562.855469 564.964844 C 562.644531 564.601562 562.457031 564.226562 562.292969 563.839844 C 562.128906 563.453125 561.988281 563.058594 561.871094 562.65625 C 561.753906 562.25 561.664062 561.84375 561.597656 561.425781 C 561.53125 561.011719 561.488281 560.597656 561.472656 560.175781 C 561.457031 559.757812 561.464844 559.335938 561.5 558.917969 C 561.535156 558.5 561.597656 558.085938 561.683594 557.675781 C 561.769531 557.261719 561.878906 556.859375 562.011719 556.460938 C 562.148438 556.0625 562.308594 555.675781 562.488281 555.296875 C 562.671875 554.917969 562.875 554.550781 563.101562 554.199219 C 563.328125 553.84375 563.578125 553.507812 563.84375 553.183594 C 564.113281 552.859375 564.398438 552.554688 564.703125 552.265625 C 565.011719 551.976562 565.332031 551.707031 565.667969 551.457031 C 566.007812 551.210938 566.359375 550.980469 566.726562 550.773438 C 567.089844 550.570312 567.46875 550.386719 567.855469 550.222656 C 568.246094 550.0625 568.640625 549.925781 569.046875 549.816406 C 569.449219 549.703125 569.859375 549.617188 570.277344 549.554688 C 589.46875 542.703125 608.683594 535.902344 627.925781 529.148438 C 628.78125 528.789062 629.636719 528.578125 630.566406 528.292969 Z M 630.566406 528.292969 " fill-opacity="1" fill-rule="nonzero"/></g></svg>